# xmcd
#
# Track frame offsets: 
#        150
#        25561
#        46614
#        65503
#        84551
#        105698
#        120289
#        143096
#        163369
#        183054
#
# Disc length: 3555 seconds
#
# Revision: 3
# Processed by: cddbd v1.5.2PL0 Copyright (c) Steve Scherf et al.
# Submitted via: ExactAudioCopy v0.95b4
#
DISCID=740de10a
DTITLE=valium21 - blau vom himmel
DYEAR=2004
DGENRE=Indie
TTITLE0=min schönschte albtraum
TTITLE1=mosaik
TTITLE2=melodon
TTITLE3=nadelpark
TTITLE4=tauch
TTITLE5=jasmintee
TTITLE6=de sand
TTITLE7=siamesie
TTITLE8=e neui nacht
TTITLE9=melodie vom ozean
EXTD=
EXTT0=
EXTT1=
EXTT2=
EXTT3=
EXTT4=
EXTT5=
EXTT6=
EXTT7=
EXTT8=
EXTT9=
PLAYORDER=
